<?xml version="1.0" encoding="UTF-8" standalone="no"?>
<svg
   xmlns:dc="http://purl.org/dc/elements/1.1/"
   xmlns:cc="http://creativecommons.org/ns#"
   xmlns:rdf="http://www.w3.org/1999/02/22-rdf-syntax-ns#"
   xmlns:svg="http://www.w3.org/2000/svg"
   xmlns="http://www.w3.org/2000/svg"
   version="1.1"
   id="svg2"
   height="24.659414"
   width="23.916588">
  <defs
     id="defs4" />
  <metadata
     id="metadata7">
    <rdf:RDF>
      <cc:Work
         rdf:about="">
        <dc:format>image/svg+xml</dc:format>
        <dc:type
           rdf:resource="http://purl.org/dc/dcmitype/StillImage" />
        <dc:title></dc:title>
      </cc:Work>
    </rdf:RDF>
  </metadata>
  <g
     transform="translate(-30.933384,-701.34705)"
     style="display:inline"
     id="layer1">
    <path
       d="m 45.158665,709.73757 -4.554699,-0.001 -2.276085,-3.94521 2.278613,-3.94376 4.554699,0.001 2.276086,3.94522 z"
       id="path3060"
       style="opacity:1;fill:#00528d;fill-opacity:1;stroke:#ffffff;stroke-width:1;stroke-miterlimit:4;stroke-dasharray:none;stroke-opacity:0.33333333" />
    <path
       d="m 45.185883,717.62441 -4.554699,-0.001 -2.276086,-3.94521 2.278614,-3.94376 4.554699,0.001 2.276086,3.94522 z"
       id="path3060-8"
       style="opacity:1;fill:#ffff00;fill-opacity:1;stroke:#ffffff;stroke-width:1;stroke-miterlimit:4;stroke-dasharray:none;stroke-opacity:0.33333333" />
    <path
       d="m 45.149792,725.50637 -4.554699,-0.001 -2.276085,-3.94521 2.278613,-3.94376 4.554699,0.001 2.276086,3.94522 z"
       id="path3060-2"
       style="opacity:1;fill:#73c934;fill-opacity:1;stroke:#ffffff;stroke-width:1;stroke-miterlimit:4;stroke-dasharray:none;stroke-opacity:0.33333333" />
    <path
       d="m 51.994008,713.68746 -4.554699,-0.001 -2.276086,-3.94521 2.278614,-3.94376 4.554699,0.001 2.276085,3.94522 z"
       id="path3060-4"
       style="opacity:1;fill:#df009c;fill-opacity:1;stroke:#ffffff;stroke-width:1;stroke-miterlimit:4;stroke-dasharray:none;stroke-opacity:0.33333333" />
    <path
       d="m 51.956078,721.57284 -4.554699,-0.001 -2.276086,-3.94522 2.278614,-3.94375 4.554699,0.001 2.276086,3.94521 z"
       id="path3060-5"
       style="opacity:1;fill:#00b397;fill-opacity:1;stroke:#ffffff;stroke-width:1;stroke-miterlimit:4;stroke-dasharray:none;stroke-opacity:0.33333333" />
    <path
       d="m 38.341519,713.71438 -4.554699,-0.001 -2.276086,-3.94521 2.278614,-3.94376 4.554699,0.001 2.276086,3.94521 z"
       id="path3060-51"
       style="opacity:1;fill:#ea0109;fill-opacity:1;stroke:#ffffff;stroke-width:1;stroke-miterlimit:4;stroke-dasharray:none;stroke-opacity:0.33333333" />
    <path
       d="m 38.361405,721.53799 -4.554699,-0.001 -2.276086,-3.94522 2.278614,-3.94375 4.554699,0.001 2.276086,3.94521 z"
       id="path3060-7"
       style="opacity:1;fill:#eb7a00;fill-opacity:1;stroke:#ffffff;stroke-width:1;stroke-miterlimit:4;stroke-dasharray:none;stroke-opacity:0.33333333" />
  </g>
</svg>
